<?xml version="1.0" encoding="utf-8"?>
<!-- Generator: Adobe Illustrator 15.1.0, SVG Export Plug-In . SVG Version: 6.00 Build 0)  -->
<!DOCTYPE svg PUBLIC "-//W3C//DTD SVG 1.1//EN" "http://www.w3.org/Graphics/SVG/1.1/DTD/svg11.dtd">
<svg version="1.1"
	 id="svg6335" sodipodi:docname="Novo documento 6" inkscape:version="0.48.5 r10040" xmlns:sodipodi="http://sodipodi.sourceforge.net/DTD/sodipodi-0.dtd" xmlns:inkscape="http://www.inkscape.org/namespaces/inkscape" xmlns:svg="http://www.w3.org/2000/svg" xmlns:rdf="http://www.w3.org/1999/02/22-rdf-syntax-ns#" xmlns:cc="http://creativecommons.org/ns#" xmlns:dc="http://purl.org/dc/elements/1.1/"
	 xmlns="http://www.w3.org/2000/svg" xmlns:xlink="http://www.w3.org/1999/xlink" x="0px" y="0px" width="595.275px"
	 height="841.89px" viewBox="0 0 595.275 841.89" enable-background="new 0 0 595.275 841.89" xml:space="preserve">
<sodipodi:namedview  id="base" inkscape:document-units="px" inkscape:current-layer="layer1" showgrid="false" inkscape:window-width="1920" inkscape:window-height="1011" inkscape:window-x="0" inkscape:window-y="27" inkscape:window-maximized="1" inkscape:cy="182.63966" inkscape:pageopacity="0.0" inkscape:pageshadow="2" inkscape:zoom="1.979899" pagecolor="#ffffff" bordercolor="#666666" borderopacity="1.0" inkscape:cx="215.58168">
	</sodipodi:namedview>
<g id="layer1" inkscape:label="Camada 1" inkscape:groupmode="layer">
	<path id="box-inner-close-tab" inkscape:connector-curvature="0" fill="none" stroke="#000000" d="M0,500.976
		c0-19.822,12.459-30.835,37.379-30.835h4.153v275.31h-4.153C12.459,745.451,0,734.439,0,714.617V500.976z"/>
	<path id="box-upper-close-tab" inkscape:connector-curvature="0" fill="none" stroke="#000000" d="M41.532,745.451v-275.31h69.22
		v275.31H41.532z"/>
	<path id="box-upper-right-tab" inkscape:connector-curvature="0" fill="none" stroke="#000000" d="M41.532,470.141v-58.732
		l55.375-14.685h13.845v73.417H41.532z"/>
	<path id="box-upper-left-tab" inkscape:connector-curvature="0" fill="none" stroke="#000000" d="M41.532,48v58.732l55.375,14.684
		h13.845V48H41.532z"/>
	<path id="box-left-tab" inkscape:connector-curvature="0" fill="none" stroke="#000000" d="M110.752,745.451l0.354,0.75
		l16.951,35.959h346.098l17.306-36.709H110.752z"/>
	<path id="box-front" inkscape:connector-curvature="0" fill="none" stroke="#000000" d="M110.752,745.451v-275.31H491.46v275.31
		H110.752z"/>
	<path id="box-right" inkscape:connector-curvature="0" fill="none" stroke="#000000" d="M110.752,470.141v-73.417H491.46v73.417
		H110.752z"/>
	<path id="box-back" inkscape:connector-curvature="0" fill="none" stroke="#000000" d="M110.752,396.724V121.416H491.46v275.308
		H110.752z"/>
	<path id="box-left" inkscape:connector-curvature="0" fill="none" stroke="#000000" d="M110.752,121.416V48H491.46v73.416H110.752z
		"/>
	<path id="box-bottom-front-tab" inkscape:connector-curvature="0" fill="none" stroke="#000000" d="M491.46,745.451h34.608v-275.31
		H491.46V745.451z"/>
	<path id="box-bottom-right-tab" inkscape:connector-curvature="0" fill="none" stroke="#000000" d="M491.46,470.141h103.828
		v-73.417H491.46V470.141z"/>
	<path id="box-bottom-back-tab" inkscape:connector-curvature="0" fill="none" stroke="#000000" d="M491.46,396.724h34.608V121.416
		H491.46V396.724z"/>
	<path id="box-bottom-left-tab" inkscape:connector-curvature="0" fill="none" stroke="#000000" d="M491.46,121.416h103.828V48
		H491.46V121.416z"/>
	<path id="box-bottom-back-tab_1_" inkscape:connector-curvature="0" fill="none" stroke="#000000" d="M526.46,397.224h34.608
		V121.916H526.46V397.224z"/>
</g>
<g>
	<path fill="#209CCD" d="M111.284,48.414v699.824c0.047,0.07,0.097,0.135,0.139,0.217c1.443,2.837,2.719,5.749,4.036,8.644
		c0.018,0.029,0.028,0.067,0.044,0.099c0.927,1.257,1.371,2.702,2.086,4.052c0.088,0.166,0.137,0.328,0.169,0.488
		c0.293,0.376,0.527,0.812,0.701,1.204c0.31,0.699,0.605,1.412,0.812,2.149c0.286,0.501,0.463,1.049,0.681,1.585
		c-0.038-0.142-0.009-0.108,0.086,0.101c0.07,0.116,0.141,0.231,0.212,0.347c0.14,0.23,0.268,0.462,0.38,0.708
		c0.019,0.041,0.027,0.084,0.043,0.126c0.407,0.313,0.677,0.788,0.734,1.322c0.338,0.343,0.515,0.816,0.535,1.299
		c0.307,0.337,0.5,0.774,0.488,1.253v0.02c0.095,0.105,0.179,0.221,0.241,0.355c0.106,0.229,0.223,0.455,0.275,0.703
		c0.011,0.054,0.004,0.105,0.012,0.159c0.032,0.05,0.051,0.116,0.081,0.17c0.077,0.092,0.151,0.188,0.217,0.302
		c0.606,1.047,0.987,2.179,1.441,3.294c0.166,0.407,0.367,0.799,0.578,1.187c0.293,0.239,0.516,0.558,0.589,0.931
		c0.012,0.059,0.025,0.117,0.037,0.176c0.192,0.33,0.384,0.661,0.563,0.996c0.148,0.277,0.222,0.55,0.237,0.812
		c0.078,0.15,0.149,0.307,0.212,0.479h55.037v-733H111.284z"/>
	
		<text transform="matrix(2.244830e-10 -1 1 2.244830e-10 231.8408 725.8589)" fill="#209CCD" font-family="'Helvetica'" font-size="29.2477">Efeito 55</text>
	<text transform="matrix(2.244830e-10 -1 1 2.244830e-10 311.5371 719.019)"><tspan x="0" y="0" fill="#3F8DA1" font-family="'Helvetica'" font-size="29.8464">200 </tspan><tspan x="58.09" y="0" fill="#3F8DA1" font-family="'Helvetica'" font-size="16.1668">milhões de habitantes</tspan></text>
	<text transform="matrix(2.244830e-10 -1 1 2.244830e-10 250.29 720.2622)"><tspan x="0" y="0" font-family="'Helvetica'" font-size="12.436">Democracia em jogo</tspan><tspan x="0" y="14.923" font-family="'Helvetica'" font-size="12.436">Lei nº </tspan><tspan x="34.964" y="14.923" font-family="'Helvetica'" font-size="11.1924">12.527</tspan></text>
	<rect x="327.138" y="471.445" fill="#FED643" width="64" height="310"/>
	<text transform="matrix(2.244830e-10 -1 1 2.244830e-10 382.0918 698.4995)" font-family="'Helvetica-Bold'" font-size="66.0167">D</text>
	<text transform="matrix(2.244830e-10 -1 1 2.244830e-10 352.5586 642.5376)"><tspan x="0" y="0" font-family="'Helvetica'" font-size="20.3728">Medicamento</tspan><tspan x="0" y="26.543" font-family="'Helvetica'" font-size="22.119">Democrático</tspan></text>
	<rect x="390.138" y="472.445" fill="#F05038" width="63" height="309"/>
	<text transform="matrix(2.244830e-10 -1 1 2.244830e-10 416.9326 615.4468)"><tspan x="0" y="0" fill="#FFFFFF" font-family="'Helvetica'" font-size="14.3014">LIVRE </tspan><tspan x="-28.201" y="17.161" fill="#FFFFFF" font-family="'Helvetica'" font-size="14.3014">DISTRIBUIÇAO</tspan></text>
	
		<text transform="matrix(2.244830e-10 -1 1 2.244830e-10 475.1377 668.6528)" fill="#B3B3B3" font-family="'Helvetica'" font-size="14.3014">Contém 81 Elementos</text>
</g>
<g>
	
		<text transform="matrix(2.244830e-10 -1 1 2.244830e-10 231.8408 375.8589)" fill="#209CCD" font-family="'Helvetica'" font-size="29.2477">Efeito 55</text>
	<text transform="matrix(2.244830e-10 -1 1 2.244830e-10 311.5371 369.019)"><tspan x="0" y="0" fill="#3F8DA1" font-family="'Helvetica'" font-size="29.8464">200 </tspan><tspan x="58.09" y="0" fill="#3F8DA1" font-family="'Helvetica'" font-size="16.1668">milhões de habitantes</tspan></text>
	<text transform="matrix(2.244830e-10 -1 1 2.244830e-10 250.29 370.2622)"><tspan x="0" y="0" font-family="'Helvetica'" font-size="12.436">Democracia em jogo</tspan><tspan x="0" y="14.923" font-family="'Helvetica'" font-size="12.436">Lei nº </tspan><tspan x="34.964" y="14.923" font-family="'Helvetica'" font-size="11.1924">12.527</tspan></text>
	<rect x="326.138" y="48.445" fill="#FED643" width="64" height="423"/>
	<text transform="matrix(2.244830e-10 -1 1 2.244830e-10 382.0918 348.4995)" font-family="'Helvetica-Bold'" font-size="66.0167">D</text>
	<text transform="matrix(2.244830e-10 -1 1 2.244830e-10 352.5586 292.5376)"><tspan x="0" y="0" font-family="'Helvetica'" font-size="20.3728">Medicamento</tspan><tspan x="0" y="26.543" font-family="'Helvetica'" font-size="22.119">Democrático</tspan></text>
	<rect x="390.138" y="48.445" fill="#F05038" width="63" height="443"/>
	<text transform="matrix(2.244830e-10 -1 1 2.244830e-10 416.9326 265.4468)"><tspan x="0" y="0" fill="#FFFFFF" font-family="'Helvetica'" font-size="14.3014">LIVRE </tspan><tspan x="-28.201" y="17.161" fill="#FFFFFF" font-family="'Helvetica'" font-size="14.3014">DISTRIBUIÇAO</tspan></text>
	
		<text transform="matrix(2.244830e-10 -1 1 2.244830e-10 475.1377 318.6528)" fill="#B3B3B3" font-family="'Helvetica'" font-size="14.3014">Contém 81 Elementos</text>
</g>
<text transform="matrix(1 0 0 1 196.1377 418.7778)"><tspan x="0" y="0" font-family="'Helvetica'" font-size="10">Contém</tspan><tspan x="0" y="12" font-family="'Helvetica'" font-size="10">1 .................tabuleiro</tspan><tspan x="0" y="24" font-family="'Helvetica'" font-size="10">81 ...............representantes</tspan><tspan x="0" y="36" font-family="'Helvetica'" font-size="10">iformações democráticas</tspan></text>
<line fill="none" stroke="#000000" x1="110.971" y1="745.778" x2="128.138" y2="782.507"/>
<rect x="361.138" y="56.019" fill="#FFFFFF" width="61.002" height="61.001"/>
<g>
	<g>
		<rect id="p_998_" x="368.532" y="63.413" width="1.848" height="1.849"/>
	</g>
	<g>
		<rect id="p_997_" x="368.532" y="65.261" width="1.848" height="1.849"/>
	</g>
	<g>
		<rect id="p_996_" x="368.532" y="67.11" width="1.848" height="1.849"/>
	</g>
	<g>
		<rect id="p_995_" x="368.532" y="68.958" width="1.848" height="1.848"/>
	</g>
	<g>
		<rect id="p_994_" x="368.532" y="70.807" width="1.848" height="1.849"/>
	</g>
	<g>
		<rect id="p_993_" x="368.532" y="72.655" width="1.848" height="1.849"/>
	</g>
	<g>
		<rect id="p_992_" x="368.532" y="74.504" width="1.848" height="1.849"/>
	</g>
	<g>
		<rect id="p_991_" x="368.532" y="78.201" width="1.848" height="1.849"/>
	</g>
	<g>
		<rect id="p_990_" x="368.532" y="83.747" width="1.848" height="1.849"/>
	</g>
	<g>
		<rect id="p_989_" x="368.532" y="85.595" width="1.848" height="1.848"/>
	</g>
	<g>
		<rect id="p_988_" x="368.532" y="96.686" width="1.848" height="1.849"/>
	</g>
	<g>
		<rect id="p_987_" x="368.532" y="98.535" width="1.848" height="1.849"/>
	</g>
	<g>
		<rect id="p_986_" x="368.532" y="100.383" width="1.848" height="1.849"/>
	</g>
	<g>
		<rect id="p_985_" x="368.532" y="102.232" width="1.848" height="1.849"/>
	</g>
	<g>
		<rect id="p_984_" x="368.532" y="104.081" width="1.848" height="1.848"/>
	</g>
	<g>
		<rect id="p_983_" x="368.532" y="105.929" width="1.848" height="1.849"/>
	</g>
	<g>
		<rect id="p_982_" x="368.532" y="107.777" width="1.848" height="1.849"/>
	</g>
	<g>
		<rect id="p_981_" x="370.38" y="63.413" width="1.849" height="1.849"/>
	</g>
	<g>
		<rect id="p_980_" x="370.38" y="74.504" width="1.849" height="1.849"/>
	</g>
	<g>
		<rect id="p_979_" x="370.38" y="80.049" width="1.849" height="1.849"/>
	</g>
	<g>
		<rect id="p_978_" x="370.38" y="83.747" width="1.849" height="1.849"/>
	</g>
	<g>
		<rect id="p_977_" x="370.38" y="85.595" width="1.849" height="1.848"/>
	</g>
	<g>
		<rect id="p_976_" x="370.38" y="91.141" width="1.849" height="1.849"/>
	</g>
	<g>
		<rect id="p_975_" x="370.38" y="92.989" width="1.849" height="1.849"/>
	</g>
	<g>
		<rect id="p_974_" x="370.38" y="96.686" width="1.849" height="1.849"/>
	</g>
	<g>
		<rect id="p_973_" x="370.38" y="107.777" width="1.849" height="1.849"/>
	</g>
	<g>
		<rect id="p_972_" x="372.229" y="63.413" width="1.849" height="1.849"/>
	</g>
	<g>
		<rect id="p_971_" x="372.229" y="67.11" width="1.849" height="1.849"/>
	</g>
	<g>
		<rect id="p_970_" x="372.229" y="68.958" width="1.849" height="1.848"/>
	</g>
	<g>
		<rect id="p_969_" x="372.229" y="70.807" width="1.849" height="1.849"/>
	</g>
	<g>
		<rect id="p_968_" x="372.229" y="74.504" width="1.849" height="1.849"/>
	</g>
	<g>
		<rect id="p_967_" x="372.229" y="80.049" width="1.849" height="1.849"/>
	</g>
	<g>
		<rect id="p_966_" x="372.229" y="81.898" width="1.849" height="1.849"/>
	</g>
	<g>
		<rect id="p_965_" x="372.229" y="89.292" width="1.849" height="1.849"/>
	</g>
	<g>
		<rect id="p_964_" x="372.229" y="91.141" width="1.849" height="1.849"/>
	</g>
	<g>
		<rect id="p_963_" x="372.229" y="92.989" width="1.849" height="1.849"/>
	</g>
	<g>
		<rect id="p_962_" x="372.229" y="96.686" width="1.849" height="1.849"/>
	</g>
	<g>
		<rect id="p_961_" x="372.229" y="100.383" width="1.849" height="1.849"/>
	</g>
	<g>
		<rect id="p_960_" x="372.229" y="102.232" width="1.849" height="1.849"/>
	</g>
	<g>
		<rect id="p_959_" x="372.229" y="104.081" width="1.849" height="1.848"/>
	</g>
	<g>
		<rect id="p_958_" x="372.229" y="107.777" width="1.849" height="1.849"/>
	</g>
	<g>
		<rect id="p_957_" x="374.077" y="63.413" width="1.849" height="1.849"/>
	</g>
	<g>
		<rect id="p_956_" x="374.077" y="67.11" width="1.849" height="1.849"/>
	</g>
	<g>
		<rect id="p_955_" x="374.077" y="68.958" width="1.849" height="1.848"/>
	</g>
	<g>
		<rect id="p_954_" x="374.077" y="70.807" width="1.849" height="1.849"/>
	</g>
	<g>
		<rect id="p_953_" x="374.077" y="74.504" width="1.849" height="1.849"/>
	</g>
	<g>
		<rect id="p_952_" x="374.077" y="78.201" width="1.849" height="1.849"/>
	</g>
	<g>
		<rect id="p_951_" x="374.077" y="80.049" width="1.849" height="1.849"/>
	</g>
	<g>
		<rect id="p_950_" x="374.077" y="89.292" width="1.849" height="1.849"/>
	</g>
	<g>
		<rect id="p_949_" x="374.077" y="91.141" width="1.849" height="1.849"/>
	</g>
	<g>
		<rect id="p_948_" x="374.077" y="92.989" width="1.849" height="1.849"/>
	</g>
	<g>
		<rect id="p_947_" x="374.077" y="96.686" width="1.849" height="1.849"/>
	</g>
	<g>
		<rect id="p_946_" x="374.077" y="100.383" width="1.849" height="1.849"/>
	</g>
	<g>
		<rect id="p_945_" x="374.077" y="102.232" width="1.849" height="1.849"/>
	</g>
	<g>
		<rect id="p_944_" x="374.077" y="104.081" width="1.849" height="1.848"/>
	</g>
	<g>
		<rect id="p_943_" x="374.077" y="107.777" width="1.849" height="1.849"/>
	</g>
	<g>
		<rect id="p_942_" x="375.926" y="63.413" width="1.849" height="1.849"/>
	</g>
	<g>
		<rect id="p_941_" x="375.926" y="67.11" width="1.849" height="1.849"/>
	</g>
	<g>
		<rect id="p_940_" x="375.926" y="68.958" width="1.849" height="1.848"/>
	</g>
	<g>
		<rect id="p_939_" x="375.926" y="70.807" width="1.849" height="1.849"/>
	</g>
	<g>
		<rect id="p_938_" x="375.926" y="74.504" width="1.849" height="1.849"/>
	</g>
	<g>
		<rect id="p_937_" x="375.926" y="78.201" width="1.849" height="1.849"/>
	</g>
	<g>
		<rect id="p_936_" x="375.926" y="81.898" width="1.849" height="1.849"/>
	</g>
	<g>
		<rect id="p_935_" x="375.926" y="85.595" width="1.849" height="1.848"/>
	</g>
	<g>
		<rect id="p_934_" x="375.926" y="89.292" width="1.849" height="1.849"/>
	</g>
	<g>
		<rect id="p_933_" x="375.926" y="91.141" width="1.849" height="1.849"/>
	</g>
	<g>
		<rect id="p_932_" x="375.926" y="96.686" width="1.849" height="1.849"/>
	</g>
	<g>
		<rect id="p_931_" x="375.926" y="100.383" width="1.849" height="1.849"/>
	</g>
	<g>
		<rect id="p_930_" x="375.926" y="102.232" width="1.849" height="1.849"/>
	</g>
	<g>
		<rect id="p_929_" x="375.926" y="104.081" width="1.849" height="1.848"/>
	</g>
	<g>
		<rect id="p_928_" x="375.926" y="107.777" width="1.849" height="1.849"/>
	</g>
	<g>
		<rect id="p_927_" x="377.774" y="63.413" width="1.849" height="1.849"/>
	</g>
	<g>
		<rect id="p_926_" x="377.774" y="74.504" width="1.849" height="1.849"/>
	</g>
	<g>
		<rect id="p_925_" x="377.774" y="78.201" width="1.849" height="1.849"/>
	</g>
	<g>
		<rect id="p_924_" x="377.774" y="80.049" width="1.849" height="1.849"/>
	</g>
	<g>
		<rect id="p_923_" x="377.774" y="87.443" width="1.849" height="1.849"/>
	</g>
	<g>
		<rect id="p_922_" x="377.774" y="89.292" width="1.849" height="1.849"/>
	</g>
	<g>
		<rect id="p_921_" x="377.774" y="96.686" width="1.849" height="1.849"/>
	</g>
	<g>
		<rect id="p_920_" x="377.774" y="107.777" width="1.849" height="1.849"/>
	</g>
	<g>
		<rect id="p_919_" x="379.623" y="63.413" width="1.849" height="1.849"/>
	</g>
	<g>
		<rect id="p_918_" x="379.623" y="65.261" width="1.849" height="1.849"/>
	</g>
	<g>
		<rect id="p_917_" x="379.623" y="67.11" width="1.849" height="1.849"/>
	</g>
	<g>
		<rect id="p_916_" x="379.623" y="68.958" width="1.849" height="1.848"/>
	</g>
	<g>
		<rect id="p_915_" x="379.623" y="70.807" width="1.849" height="1.849"/>
	</g>
	<g>
		<rect id="p_914_" x="379.623" y="72.655" width="1.849" height="1.849"/>
	</g>
	<g>
		<rect id="p_913_" x="379.623" y="74.504" width="1.849" height="1.849"/>
	</g>
	<g>
		<rect id="p_912_" x="379.623" y="78.201" width="1.849" height="1.849"/>
	</g>
	<g>
		<rect id="p_911_" x="379.623" y="81.898" width="1.849" height="1.849"/>
	</g>
	<g>
		<rect id="p_910_" x="379.623" y="85.595" width="1.849" height="1.848"/>
	</g>
	<g>
		<rect id="p_909_" x="379.623" y="89.292" width="1.849" height="1.849"/>
	</g>
	<g>
		<rect id="p_908_" x="379.623" y="92.989" width="1.849" height="1.849"/>
	</g>
	<g>
		<rect id="p_907_" x="379.623" y="96.686" width="1.849" height="1.849"/>
	</g>
	<g>
		<rect id="p_906_" x="379.623" y="98.535" width="1.849" height="1.849"/>
	</g>
	<g>
		<rect id="p_905_" x="379.623" y="100.383" width="1.849" height="1.849"/>
	</g>
	<g>
		<rect id="p_904_" x="379.623" y="102.232" width="1.849" height="1.849"/>
	</g>
	<g>
		<rect id="p_903_" x="379.623" y="104.081" width="1.849" height="1.848"/>
	</g>
	<g>
		<rect id="p_902_" x="379.623" y="105.929" width="1.849" height="1.849"/>
	</g>
	<g>
		<rect id="p_901_" x="379.623" y="107.777" width="1.849" height="1.849"/>
	</g>
	<g>
		<rect id="p_900_" x="381.472" y="78.201" width="1.849" height="1.849"/>
	</g>
	<g>
		<rect id="p_899_" x="381.472" y="80.049" width="1.849" height="1.849"/>
	</g>
	<g>
		<rect id="p_898_" x="381.472" y="83.747" width="1.849" height="1.849"/>
	</g>
	<g>
		<rect id="p_897_" x="381.472" y="87.443" width="1.849" height="1.849"/>
	</g>
	<g>
		<rect id="p_896_" x="381.472" y="89.292" width="1.849" height="1.849"/>
	</g>
	<g>
		<rect id="p_895_" x="381.472" y="91.141" width="1.849" height="1.849"/>
	</g>
	<g>
		<rect id="p_894_" x="383.32" y="63.413" width="1.849" height="1.849"/>
	</g>
	<g>
		<rect id="p_893_" x="383.32" y="65.261" width="1.849" height="1.849"/>
	</g>
	<g>
		<rect id="p_892_" x="383.32" y="67.11" width="1.849" height="1.849"/>
	</g>
	<g>
		<rect id="p_891_" x="383.32" y="70.807" width="1.849" height="1.849"/>
	</g>
	<g>
		<rect id="p_890_" x="383.32" y="74.504" width="1.849" height="1.849"/>
	</g>
	<g>
		<rect id="p_889_" x="383.32" y="78.201" width="1.849" height="1.849"/>
	</g>
	<g>
		<rect id="p_888_" x="383.32" y="83.747" width="1.849" height="1.849"/>
	</g>
	<g>
		<rect id="p_887_" x="383.32" y="85.595" width="1.849" height="1.848"/>
	</g>
	<g>
		<rect id="p_886_" x="383.32" y="92.989" width="1.849" height="1.849"/>
	</g>
	<g>
		<rect id="p_885_" x="383.32" y="94.838" width="1.849" height="1.848"/>
	</g>
	<g>
		<rect id="p_884_" x="383.32" y="96.686" width="1.849" height="1.849"/>
	</g>
	<g>
		<rect id="p_883_" x="383.32" y="98.535" width="1.849" height="1.849"/>
	</g>
	<g>
		<rect id="p_882_" x="383.32" y="100.383" width="1.849" height="1.849"/>
	</g>
	<g>
		<rect id="p_881_" x="383.32" y="102.232" width="1.849" height="1.849"/>
	</g>
	<g>
		<rect id="p_880_" x="383.32" y="107.777" width="1.849" height="1.849"/>
	</g>
	<g>
		<rect id="p_879_" x="385.169" y="65.261" width="1.848" height="1.849"/>
	</g>
	<g>
		<rect id="p_878_" x="385.169" y="70.807" width="1.848" height="1.849"/>
	</g>
	<g>
		<rect id="p_877_" x="385.169" y="72.655" width="1.848" height="1.849"/>
	</g>
	<g>
		<rect id="p_876_" x="385.169" y="78.201" width="1.848" height="1.849"/>
	</g>
	<g>
		<rect id="p_875_" x="385.169" y="81.898" width="1.848" height="1.849"/>
	</g>
	<g>
		<rect id="p_874_" x="385.169" y="83.747" width="1.848" height="1.849"/>
	</g>
	<g>
		<rect id="p_873_" x="385.169" y="87.443" width="1.848" height="1.849"/>
	</g>
	<g>
		<rect id="p_872_" x="385.169" y="94.838" width="1.848" height="1.848"/>
	</g>
	<g>
		<rect id="p_871_" x="385.169" y="98.535" width="1.848" height="1.849"/>
	</g>
	<g>
		<rect id="p_870_" x="385.169" y="105.929" width="1.848" height="1.849"/>
	</g>
	<g>
		<rect id="p_869_" x="385.169" y="107.777" width="1.848" height="1.849"/>
	</g>
	<g>
		<rect id="p_868_" x="387.017" y="63.413" width="1.849" height="1.849"/>
	</g>
	<g>
		<rect id="p_867_" x="387.017" y="70.807" width="1.849" height="1.849"/>
	</g>
	<g>
		<rect id="p_866_" x="387.017" y="72.655" width="1.849" height="1.849"/>
	</g>
	<g>
		<rect id="p_865_" x="387.017" y="74.504" width="1.849" height="1.849"/>
	</g>
	<g>
		<rect id="p_864_" x="387.017" y="76.353" width="1.849" height="1.848"/>
	</g>
	<g>
		<rect id="p_863_" x="387.017" y="78.201" width="1.849" height="1.849"/>
	</g>
	<g>
		<rect id="p_862_" x="387.017" y="80.049" width="1.849" height="1.849"/>
	</g>
	<g>
		<rect id="p_861_" x="387.017" y="81.898" width="1.849" height="1.849"/>
	</g>
	<g>
		<rect id="p_860_" x="387.017" y="83.747" width="1.849" height="1.849"/>
	</g>
	<g>
		<rect id="p_859_" x="387.017" y="85.595" width="1.849" height="1.848"/>
	</g>
	<g>
		<rect id="p_858_" x="387.017" y="87.443" width="1.849" height="1.849"/>
	</g>
	<g>
		<rect id="p_857_" x="387.017" y="92.989" width="1.849" height="1.849"/>
	</g>
	<g>
		<rect id="p_856_" x="387.017" y="94.838" width="1.849" height="1.848"/>
	</g>
	<g>
		<rect id="p_855_" x="387.017" y="104.081" width="1.849" height="1.848"/>
	</g>
	<g>
		<rect id="p_854_" x="387.017" y="105.929" width="1.849" height="1.849"/>
	</g>
	<g>
		<rect id="p_853_" x="388.865" y="67.11" width="1.849" height="1.849"/>
	</g>
	<g>
		<rect id="p_852_" x="388.865" y="68.958" width="1.849" height="1.848"/>
	</g>
	<g>
		<rect id="p_851_" x="388.865" y="72.655" width="1.849" height="1.849"/>
	</g>
	<g>
		<rect id="p_850_" x="388.865" y="76.353" width="1.849" height="1.848"/>
	</g>
	<g>
		<rect id="p_849_" x="388.865" y="80.049" width="1.849" height="1.849"/>
	</g>
	<g>
		<rect id="p_848_" x="388.865" y="81.898" width="1.849" height="1.849"/>
	</g>
	<g>
		<rect id="p_847_" x="388.865" y="85.595" width="1.849" height="1.848"/>
	</g>
	<g>
		<rect id="p_846_" x="388.865" y="92.989" width="1.849" height="1.849"/>
	</g>
	<g>
		<rect id="p_845_" x="388.865" y="94.838" width="1.849" height="1.848"/>
	</g>
	<g>
		<rect id="p_844_" x="388.865" y="98.535" width="1.849" height="1.849"/>
	</g>
	<g>
		<rect id="p_843_" x="388.865" y="100.383" width="1.849" height="1.849"/>
	</g>
	<g>
		<rect id="p_842_" x="388.865" y="104.081" width="1.849" height="1.848"/>
	</g>
	<g>
		<rect id="p_841_" x="388.865" y="105.929" width="1.849" height="1.849"/>
	</g>
	<g>
		<rect id="p_840_" x="388.865" y="107.777" width="1.849" height="1.849"/>
	</g>
	<g>
		<rect id="p_839_" x="390.714" y="67.11" width="1.849" height="1.849"/>
	</g>
	<g>
		<rect id="p_838_" x="390.714" y="68.958" width="1.849" height="1.848"/>
	</g>
	<g>
		<rect id="p_837_" x="390.714" y="72.655" width="1.849" height="1.849"/>
	</g>
	<g>
		<rect id="p_836_" x="390.714" y="74.504" width="1.849" height="1.849"/>
	</g>
	<g>
		<rect id="p_835_" x="390.714" y="76.353" width="1.849" height="1.848"/>
	</g>
	<g>
		<rect id="p_834_" x="390.714" y="80.049" width="1.849" height="1.849"/>
	</g>
	<g>
		<rect id="p_833_" x="390.714" y="83.747" width="1.849" height="1.849"/>
	</g>
	<g>
		<rect id="p_832_" x="390.714" y="87.443" width="1.849" height="1.849"/>
	</g>
	<g>
		<rect id="p_831_" x="390.714" y="91.141" width="1.849" height="1.849"/>
	</g>
	<g>
		<rect id="p_830_" x="390.714" y="92.989" width="1.849" height="1.849"/>
	</g>
	<g>
		<rect id="p_829_" x="390.714" y="96.686" width="1.849" height="1.849"/>
	</g>
	<g>
		<rect id="p_828_" x="390.714" y="102.232" width="1.849" height="1.849"/>
	</g>
	<g>
		<rect id="p_827_" x="390.714" y="105.929" width="1.849" height="1.849"/>
	</g>
	<g>
		<rect id="p_826_" x="390.714" y="107.777" width="1.849" height="1.849"/>
	</g>
	<g>
		<rect id="p_825_" x="392.562" y="67.11" width="1.849" height="1.849"/>
	</g>
	<g>
		<rect id="p_824_" x="392.562" y="68.958" width="1.849" height="1.848"/>
	</g>
	<g>
		<rect id="p_823_" x="392.562" y="70.807" width="1.849" height="1.849"/>
	</g>
	<g>
		<rect id="p_822_" x="392.562" y="76.353" width="1.849" height="1.848"/>
	</g>
	<g>
		<rect id="p_821_" x="392.562" y="80.049" width="1.849" height="1.849"/>
	</g>
	<g>
		<rect id="p_820_" x="392.562" y="81.898" width="1.849" height="1.849"/>
	</g>
	<g>
		<rect id="p_819_" x="392.562" y="87.443" width="1.849" height="1.849"/>
	</g>
	<g>
		<rect id="p_818_" x="392.562" y="92.989" width="1.849" height="1.849"/>
	</g>
	<g>
		<rect id="p_817_" x="392.562" y="98.535" width="1.849" height="1.849"/>
	</g>
	<g>
		<rect id="p_816_" x="392.562" y="100.383" width="1.849" height="1.849"/>
	</g>
	<g>
		<rect id="p_815_" x="392.562" y="102.232" width="1.849" height="1.849"/>
	</g>
	<g>
		<rect id="p_814_" x="392.562" y="104.081" width="1.849" height="1.848"/>
	</g>
	<g>
		<rect id="p_813_" x="392.562" y="105.929" width="1.849" height="1.849"/>
	</g>
	<g>
		<rect id="p_812_" x="392.562" y="107.777" width="1.849" height="1.849"/>
	</g>
	<g>
		<rect id="p_811_" x="394.411" y="63.413" width="1.849" height="1.849"/>
	</g>
	<g>
		<rect id="p_810_" x="394.411" y="67.11" width="1.849" height="1.849"/>
	</g>
	<g>
		<rect id="p_809_" x="394.411" y="70.807" width="1.849" height="1.849"/>
	</g>
	<g>
		<rect id="p_808_" x="394.411" y="72.655" width="1.849" height="1.849"/>
	</g>
	<g>
		<rect id="p_807_" x="394.411" y="74.504" width="1.849" height="1.849"/>
	</g>
	<g>
		<rect id="p_806_" x="394.411" y="80.049" width="1.849" height="1.849"/>
	</g>
	<g>
		<rect id="p_805_" x="394.411" y="87.443" width="1.849" height="1.849"/>
	</g>
	<g>
		<rect id="p_804_" x="394.411" y="91.141" width="1.849" height="1.849"/>
	</g>
	<g>
		<rect id="p_803_" x="394.411" y="94.838" width="1.849" height="1.848"/>
	</g>
	<g>
		<rect id="p_802_" x="394.411" y="96.686" width="1.849" height="1.849"/>
	</g>
	<g>
		<rect id="p_801_" x="394.411" y="98.535" width="1.849" height="1.849"/>
	</g>
	<g>
		<rect id="p_800_" x="394.411" y="102.232" width="1.849" height="1.849"/>
	</g>
	<g>
		<rect id="p_799_" x="396.26" y="76.353" width="1.849" height="1.848"/>
	</g>
	<g>
		<rect id="p_798_" x="396.26" y="80.049" width="1.849" height="1.849"/>
	</g>
	<g>
		<rect id="p_797_" x="396.26" y="81.898" width="1.849" height="1.849"/>
	</g>
	<g>
		<rect id="p_796_" x="396.26" y="85.595" width="1.849" height="1.848"/>
	</g>
	<g>
		<rect id="p_795_" x="396.26" y="87.443" width="1.849" height="1.849"/>
	</g>
	<g>
		<rect id="p_794_" x="396.26" y="89.292" width="1.849" height="1.849"/>
	</g>
	<g>
		<rect id="p_793_" x="396.26" y="92.989" width="1.849" height="1.849"/>
	</g>
	<g>
		<rect id="p_792_" x="396.26" y="94.838" width="1.849" height="1.848"/>
	</g>
	<g>
		<rect id="p_791_" x="396.26" y="100.383" width="1.849" height="1.849"/>
	</g>
	<g>
		<rect id="p_790_" x="396.26" y="102.232" width="1.849" height="1.849"/>
	</g>
	<g>
		<rect id="p_789_" x="398.108" y="65.261" width="1.849" height="1.849"/>
	</g>
	<g>
		<rect id="p_788_" x="398.108" y="67.11" width="1.849" height="1.849"/>
	</g>
	<g>
		<rect id="p_787_" x="398.108" y="68.958" width="1.849" height="1.848"/>
	</g>
	<g>
		<rect id="p_786_" x="398.108" y="70.807" width="1.849" height="1.849"/>
	</g>
	<g>
		<rect id="p_785_" x="398.108" y="72.655" width="1.849" height="1.849"/>
	</g>
	<g>
		<rect id="p_784_" x="398.108" y="74.504" width="1.849" height="1.849"/>
	</g>
	<g>
		<rect id="p_783_" x="398.108" y="76.353" width="1.849" height="1.848"/>
	</g>
	<g>
		<rect id="p_782_" x="398.108" y="78.201" width="1.849" height="1.849"/>
	</g>
	<g>
		<rect id="p_781_" x="398.108" y="80.049" width="1.849" height="1.849"/>
	</g>
	<g>
		<rect id="p_780_" x="398.108" y="81.898" width="1.849" height="1.849"/>
	</g>
	<g>
		<rect id="p_779_" x="398.108" y="92.989" width="1.849" height="1.849"/>
	</g>
	<g>
		<rect id="p_778_" x="398.108" y="94.838" width="1.849" height="1.848"/>
	</g>
	<g>
		<rect id="p_777_" x="398.108" y="96.686" width="1.849" height="1.849"/>
	</g>
	<g>
		<rect id="p_776_" x="398.108" y="98.535" width="1.849" height="1.849"/>
	</g>
	<g>
		<rect id="p_775_" x="398.108" y="100.383" width="1.849" height="1.849"/>
	</g>
	<g>
		<rect id="p_774_" x="398.108" y="104.081" width="1.849" height="1.848"/>
	</g>
	<g>
		<rect id="p_773_" x="398.108" y="107.777" width="1.849" height="1.849"/>
	</g>
	<g>
		<rect id="p_772_" x="399.957" y="78.201" width="1.849" height="1.849"/>
	</g>
	<g>
		<rect id="p_771_" x="399.957" y="91.141" width="1.849" height="1.849"/>
	</g>
	<g>
		<rect id="p_770_" x="399.957" y="92.989" width="1.849" height="1.849"/>
	</g>
	<g>
		<rect id="p_769_" x="399.957" y="100.383" width="1.849" height="1.849"/>
	</g>
	<g>
		<rect id="p_768_" x="399.957" y="102.232" width="1.849" height="1.849"/>
	</g>
	<g>
		<rect id="p_767_" x="399.957" y="107.777" width="1.849" height="1.849"/>
	</g>
	<g>
		<rect id="p_766_" x="401.806" y="63.413" width="1.849" height="1.849"/>
	</g>
	<g>
		<rect id="p_765_" x="401.806" y="65.261" width="1.849" height="1.849"/>
	</g>
	<g>
		<rect id="p_764_" x="401.806" y="67.11" width="1.849" height="1.849"/>
	</g>
	<g>
		<rect id="p_763_" x="401.806" y="68.958" width="1.849" height="1.848"/>
	</g>
	<g>
		<rect id="p_762_" x="401.806" y="70.807" width="1.849" height="1.849"/>
	</g>
	<g>
		<rect id="p_761_" x="401.806" y="72.655" width="1.849" height="1.849"/>
	</g>
	<g>
		<rect id="p_760_" x="401.806" y="74.504" width="1.849" height="1.849"/>
	</g>
	<g>
		<rect id="p_759_" x="401.806" y="81.898" width="1.849" height="1.849"/>
	</g>
	<g>
		<rect id="p_758_" x="401.806" y="83.747" width="1.849" height="1.849"/>
	</g>
	<g>
		<rect id="p_757_" x="401.806" y="85.595" width="1.849" height="1.848"/>
	</g>
	<g>
		<rect id="p_756_" x="401.806" y="91.141" width="1.849" height="1.849"/>
	</g>
	<g>
		<rect id="p_755_" x="401.806" y="92.989" width="1.849" height="1.849"/>
	</g>
	<g>
		<rect id="p_754_" x="401.806" y="96.686" width="1.849" height="1.849"/>
	</g>
	<g>
		<rect id="p_753_" x="401.806" y="100.383" width="1.849" height="1.849"/>
	</g>
	<g>
		<rect id="p_752_" x="401.806" y="102.232" width="1.849" height="1.849"/>
	</g>
	<g>
		<rect id="p_751_" x="401.806" y="105.929" width="1.849" height="1.849"/>
	</g>
	<g>
		<rect id="p_750_" x="401.806" y="107.777" width="1.849" height="1.849"/>
	</g>
	<g>
		<rect id="p_749_" x="403.654" y="63.413" width="1.848" height="1.849"/>
	</g>
	<g>
		<rect id="p_748_" x="403.654" y="74.504" width="1.848" height="1.849"/>
	</g>
	<g>
		<rect id="p_747_" x="403.654" y="80.049" width="1.848" height="1.849"/>
	</g>
	<g>
		<rect id="p_746_" x="403.654" y="83.747" width="1.848" height="1.849"/>
	</g>
	<g>
		<rect id="p_745_" x="403.654" y="85.595" width="1.848" height="1.848"/>
	</g>
	<g>
		<rect id="p_744_" x="403.654" y="91.141" width="1.848" height="1.849"/>
	</g>
	<g>
		<rect id="p_743_" x="403.654" y="92.989" width="1.848" height="1.849"/>
	</g>
	<g>
		<rect id="p_742_" x="403.654" y="100.383" width="1.848" height="1.849"/>
	</g>
	<g>
		<rect id="p_741_" x="403.654" y="104.081" width="1.848" height="1.848"/>
	</g>
	<g>
		<rect id="p_740_" x="403.654" y="105.929" width="1.848" height="1.849"/>
	</g>
	<g>
		<rect id="p_739_" x="405.502" y="63.413" width="1.849" height="1.849"/>
	</g>
	<g>
		<rect id="p_738_" x="405.502" y="67.11" width="1.849" height="1.849"/>
	</g>
	<g>
		<rect id="p_737_" x="405.502" y="68.958" width="1.849" height="1.848"/>
	</g>
	<g>
		<rect id="p_736_" x="405.502" y="70.807" width="1.849" height="1.849"/>
	</g>
	<g>
		<rect id="p_735_" x="405.502" y="74.504" width="1.849" height="1.849"/>
	</g>
	<g>
		<rect id="p_734_" x="405.502" y="78.201" width="1.849" height="1.849"/>
	</g>
	<g>
		<rect id="p_733_" x="405.502" y="80.049" width="1.849" height="1.849"/>
	</g>
	<g>
		<rect id="p_732_" x="405.502" y="87.443" width="1.849" height="1.849"/>
	</g>
	<g>
		<rect id="p_731_" x="405.502" y="91.141" width="1.849" height="1.849"/>
	</g>
	<g>
		<rect id="p_730_" x="405.502" y="92.989" width="1.849" height="1.849"/>
	</g>
	<g>
		<rect id="p_729_" x="405.502" y="94.838" width="1.849" height="1.848"/>
	</g>
	<g>
		<rect id="p_728_" x="405.502" y="96.686" width="1.849" height="1.849"/>
	</g>
	<g>
		<rect id="p_727_" x="405.502" y="98.535" width="1.849" height="1.849"/>
	</g>
	<g>
		<rect id="p_726_" x="405.502" y="100.383" width="1.849" height="1.849"/>
	</g>
	<g>
		<rect id="p_725_" x="405.502" y="104.081" width="1.849" height="1.848"/>
	</g>
	<g>
		<rect id="p_724_" x="405.502" y="105.929" width="1.849" height="1.849"/>
	</g>
	<g>
		<rect id="p_723_" x="407.351" y="63.413" width="1.849" height="1.849"/>
	</g>
	<g>
		<rect id="p_722_" x="407.351" y="67.11" width="1.849" height="1.849"/>
	</g>
	<g>
		<rect id="p_721_" x="407.351" y="68.958" width="1.849" height="1.848"/>
	</g>
	<g>
		<rect id="p_720_" x="407.351" y="70.807" width="1.849" height="1.849"/>
	</g>
	<g>
		<rect id="p_719_" x="407.351" y="74.504" width="1.849" height="1.849"/>
	</g>
	<g>
		<rect id="p_718_" x="407.351" y="80.049" width="1.849" height="1.849"/>
	</g>
	<g>
		<rect id="p_717_" x="407.351" y="81.898" width="1.849" height="1.849"/>
	</g>
	<g>
		<rect id="p_716_" x="407.351" y="83.747" width="1.849" height="1.849"/>
	</g>
	<g>
		<rect id="p_715_" x="407.351" y="89.292" width="1.849" height="1.849"/>
	</g>
	<g>
		<rect id="p_714_" x="407.351" y="96.686" width="1.849" height="1.849"/>
	</g>
	<g>
		<rect id="p_713_" x="407.351" y="100.383" width="1.849" height="1.849"/>
	</g>
	<g>
		<rect id="p_712_" x="407.351" y="102.232" width="1.849" height="1.849"/>
	</g>
	<g>
		<rect id="p_711_" x="407.351" y="107.777" width="1.849" height="1.849"/>
	</g>
	<g>
		<rect id="p_710_" x="409.199" y="63.413" width="1.849" height="1.849"/>
	</g>
	<g>
		<rect id="p_709_" x="409.199" y="67.11" width="1.849" height="1.849"/>
	</g>
	<g>
		<rect id="p_708_" x="409.199" y="68.958" width="1.849" height="1.848"/>
	</g>
	<g>
		<rect id="p_707_" x="409.199" y="70.807" width="1.849" height="1.849"/>
	</g>
	<g>
		<rect id="p_706_" x="409.199" y="74.504" width="1.849" height="1.849"/>
	</g>
	<g>
		<rect id="p_705_" x="409.199" y="78.201" width="1.849" height="1.849"/>
	</g>
	<g>
		<rect id="p_704_" x="409.199" y="80.049" width="1.849" height="1.849"/>
	</g>
	<g>
		<rect id="p_703_" x="409.199" y="83.747" width="1.849" height="1.849"/>
	</g>
	<g>
		<rect id="p_702_" x="409.199" y="89.292" width="1.849" height="1.849"/>
	</g>
	<g>
		<rect id="p_701_" x="409.199" y="91.141" width="1.849" height="1.849"/>
	</g>
	<g>
		<rect id="p_700_" x="409.199" y="92.989" width="1.849" height="1.849"/>
	</g>
	<g>
		<rect id="p_699_" x="409.199" y="104.081" width="1.849" height="1.848"/>
	</g>
	<g>
		<rect id="p_698_" x="409.199" y="105.929" width="1.849" height="1.849"/>
	</g>
	<g>
		<rect id="p_697_" x="411.048" y="63.413" width="1.849" height="1.849"/>
	</g>
	<g>
		<rect id="p_696_" x="411.048" y="74.504" width="1.849" height="1.849"/>
	</g>
	<g>
		<rect id="p_695_" x="411.048" y="78.201" width="1.849" height="1.849"/>
	</g>
	<g>
		<rect id="p_694_" x="411.048" y="80.049" width="1.849" height="1.849"/>
	</g>
	<g>
		<rect id="p_693_" x="411.048" y="83.747" width="1.849" height="1.849"/>
	</g>
	<g>
		<rect id="p_692_" x="411.048" y="87.443" width="1.849" height="1.849"/>
	</g>
	<g>
		<rect id="p_691_" x="411.048" y="89.292" width="1.849" height="1.849"/>
	</g>
	<g>
		<rect id="p_690_" x="411.048" y="92.989" width="1.849" height="1.849"/>
	</g>
	<g>
		<rect id="p_689_" x="411.048" y="94.838" width="1.849" height="1.848"/>
	</g>
	<g>
		<rect id="p_688_" x="411.048" y="100.383" width="1.849" height="1.849"/>
	</g>
	<g>
		<rect id="p_687_" x="411.048" y="102.232" width="1.849" height="1.849"/>
	</g>
	<g>
		<rect id="p_686_" x="411.048" y="104.081" width="1.849" height="1.848"/>
	</g>
	<g>
		<rect id="p_685_" x="411.048" y="105.929" width="1.849" height="1.849"/>
	</g>
	<g>
		<rect id="p_684_" x="412.896" y="63.413" width="1.849" height="1.849"/>
	</g>
	<g>
		<rect id="p_683_" x="412.896" y="65.261" width="1.849" height="1.849"/>
	</g>
	<g>
		<rect id="p_682_" x="412.896" y="67.11" width="1.849" height="1.849"/>
	</g>
	<g>
		<rect id="p_681_" x="412.896" y="68.958" width="1.849" height="1.848"/>
	</g>
	<g>
		<rect id="p_680_" x="412.896" y="70.807" width="1.849" height="1.849"/>
	</g>
	<g>
		<rect id="p_679_" x="412.896" y="72.655" width="1.849" height="1.849"/>
	</g>
	<g>
		<rect id="p_678_" x="412.896" y="74.504" width="1.849" height="1.849"/>
	</g>
	<g>
		<rect id="p_677_" x="412.896" y="78.201" width="1.849" height="1.849"/>
	</g>
	<g>
		<rect id="p_676_" x="412.896" y="81.898" width="1.849" height="1.849"/>
	</g>
	<g>
		<rect id="p_675_" x="412.896" y="83.747" width="1.849" height="1.849"/>
	</g>
	<g>
		<rect id="p_674_" x="412.896" y="85.595" width="1.849" height="1.848"/>
	</g>
	<g>
		<rect id="p_673_" x="412.896" y="89.292" width="1.849" height="1.849"/>
	</g>
	<g>
		<rect id="p_672_" x="412.896" y="91.141" width="1.849" height="1.849"/>
	</g>
	<g>
		<rect id="p_671_" x="412.896" y="96.686" width="1.849" height="1.849"/>
	</g>
	<g>
		<rect id="p_670_" x="412.896" y="100.383" width="1.849" height="1.849"/>
	</g>
	<g>
		<rect id="p_669_" x="412.896" y="102.232" width="1.849" height="1.849"/>
	</g>
	<g>
		<rect id="p_668_" x="412.896" y="104.081" width="1.849" height="1.848"/>
	</g>
	<g>
		<rect id="p_667_" x="412.896" y="105.929" width="1.849" height="1.849"/>
	</g>
	<g>
		<rect id="p_666_" x="412.896" y="107.777" width="1.849" height="1.849"/>
	</g>
</g>
<text transform="matrix(1 0 0 1 190.6416 92.2134)" font-family="'Helvetica'" font-size="13.8065">www.efeito55.com.br</text>
<path id="path11025" inkscape:export-ydpi="300" inkscape:export-xdpi="300" inkscape:export-filename="/home/Nushio/Pictures/Fedora Cheat Cube/Fedora Cheat Cube Users.png" inkscape:connector-curvature="0" fill="#7A7878" d="
	M30.339,49.833c0.339-0.001,0.688-0.272,0.688-0.663c-0.002-0.433-0.354-0.668-0.737-0.667c-0.38,0.001-0.731,0.258-0.728,0.691
	C29.563,49.599,30.001,49.835,30.339,49.833 M28.217,44.992c-0.003-0.51-0.356-0.971-0.848-0.969
	c-0.493,0.003-0.928,0.381-0.925,0.917c0.003,0.477,0.372,0.924,0.833,0.921C27.742,45.86,28.218,45.528,28.217,44.992
	 M33.991,44.884c-0.003-0.476-0.369-0.925-0.85-0.922c-0.506,0.003-0.928,0.38-0.925,0.931c0.002,0.51,0.415,0.911,0.88,0.908
	C33.559,45.799,33.992,45.407,33.991,44.884 M30.191,51.401l-2.866,4.793c-0.522-0.443-0.865-1.385-0.867-2.086
	c-0.004-0.805,0.358-1.583,0.777-2.259l1.676-2.711l-0.185-0.328c-0.083-0.15-0.297-0.461-0.298-0.67
	c0-0.224,0.125-0.539,0.124-0.896c-0.001-0.211-0.03-0.403-0.102-0.598c-0.406,0.301-0.785,0.452-1.279,0.454
	c-1.126,0.006-1.808-1.081-1.813-2.186c-0.006-1.373,0.863-2.169,2.131-2.176c0.717-0.003,1.325,0.323,1.708,0.974
	c0.384,0.673,0.431,1.582,0.435,2.344c-0.014,0.404,0.059,1.135,0.581,1.132c0.522-0.003,0.548-0.688,0.558-1.077
	c0.039-0.688,0.063-1.614,0.329-2.227c0.347-0.793,1.051-1.216,1.88-1.221c1.225-0.006,2.118,0.858,2.124,2.17
	c0.005,1.122-0.736,2.215-1.862,2.222c-0.479,0.002-0.817-0.146-1.215-0.427c-0.056,0.135-0.067,0.27-0.067,0.418
	c0.001,0.269,0.06,0.54,0.102,0.791c0.029,0.164,0.086,0.359,0.088,0.523c0,0.269-0.211,0.568-0.377,0.747l1.264,2.279
	c0.468,0.819,0.894,1.744,0.898,2.73c0.004,0.85-0.331,1.66-1.002,2.14L30.191,51.401L30.191,51.401z"/>
<g>
	
		<path id="path11065" inkscape:export-ydpi="300" inkscape:export-xdpi="300" inkscape:export-filename="/home/Nushio/Pictures/Fedora Cheat Cube/Fedora Cheat Cube Users.png" inkscape:connector-curvature="0" fill="none" stroke="#7A7878" stroke-width="1.1575" d="
		M499.014,432.113l-0.394,7.994l-4.232-1.277l-0.035-7.895L499.014,432.113L499.014,432.113z"/>
	
		<path id="path11067" inkscape:export-ydpi="300" inkscape:export-xdpi="300" inkscape:export-filename="/home/Nushio/Pictures/Fedora Cheat Cube/Fedora Cheat Cube Users.png" inkscape:connector-curvature="0" fill="none" stroke="#7A7878" stroke-width="1.1575" d="
		M498.399,432.02l0.172-2.405l-4.219,1.322l0.035,7.893"/>
</g>
<g>
	
		<path id="path11065_2_" inkscape:export-ydpi="300" inkscape:export-xdpi="300" inkscape:export-filename="/home/Nushio/Pictures/Fedora Cheat Cube/Fedora Cheat Cube Users.png" inkscape:connector-curvature="0" fill="none" stroke="#7A7878" stroke-width="1.1575" d="
		M499.681,80.446l-0.394,7.994l-4.232-1.277l-0.035-7.895L499.681,80.446L499.681,80.446z"/>
	
		<path id="path11067_2_" inkscape:export-ydpi="300" inkscape:export-xdpi="300" inkscape:export-filename="/home/Nushio/Pictures/Fedora Cheat Cube/Fedora Cheat Cube Users.png" inkscape:connector-curvature="0" fill="none" stroke="#7A7878" stroke-width="1.1575" d="
		M499.066,80.354l0.172-2.405l-4.219,1.322l0.035,7.893"/>
</g>
<path id="path11023_2_" inkscape:export-ydpi="300" inkscape:export-xdpi="300" inkscape:export-filename="/home/Nushio/Pictures/Fedora Cheat Cube/Fedora Cheat Cube Users.png" inkscape:connector-curvature="0" fill="#B8B5B5" d="
	M537.423,140.171c-1.128,0.007-2.047-1.132-2.053-2.544c-0.006-1.413,0.905-2.564,2.033-2.571c1.129-0.007,3.208,2.54,3.208,2.54
	S538.552,140.164,537.423,140.171"/>
<path id="path11029" inkscape:export-ydpi="300" inkscape:export-xdpi="300" inkscape:export-filename="/home/Nushio/Pictures/Fedora Cheat Cube/Fedora Cheat Cube Users.png" inkscape:connector-curvature="0" fill="none" stroke="#7A7878" stroke-width="1.1575" d="
	M539.447,144.753c-1.005-1.215,0.098-2.774,0.727-2.608c1.122,0.068,1.942,1.239,2.431,2.257
	C542.593,144.407,539.841,145.228,539.447,144.753L539.447,144.753z"/>
<path id="path11031" inkscape:export-ydpi="300" inkscape:export-xdpi="300" inkscape:export-filename="/home/Nushio/Pictures/Fedora Cheat Cube/Fedora Cheat Cube Users.png" inkscape:connector-curvature="0" fill="none" stroke="#7A7878" stroke-width="1.1575" d="
	M541.412,150.037c0,0,0.108-1.978,1.106-2.48l1.837-0.925c1.563-0.787,2.513,0.661,2.513,0.661l1.566,3.505
	c0.389,0.868-0.109,1.979-1.108,2.482l-1.836,0.923c-1,0.503-2.123,0.205-2.513-0.663L541.412,150.037z"/>
<path id="path11033" inkscape:export-ydpi="300" inkscape:export-xdpi="300" inkscape:export-filename="/home/Nushio/Pictures/Fedora Cheat Cube/Fedora Cheat Cube Users.png" inkscape:connector-curvature="0" fill="none" stroke="#7A7878" stroke-width="1.1575" d="
	M543.232,153.867c0.283,0.369,0.827,0.666,1.351,0.464c0.746-0.372,0.967-1.328,0.289-1.699c-0.339-0.188-0.814-0.055-1.068,0.294
	c-0.204,0.279-0.272,0.632-0.052,0.852c0.222,0.22,0.526,0.191,0.815,0.055c-0.087-0.144,0.151-0.6-0.328-0.489"/>
<path id="path11035" inkscape:export-ydpi="300" inkscape:export-xdpi="300" inkscape:export-filename="/home/Nushio/Pictures/Fedora Cheat Cube/Fedora Cheat Cube Users.png" inkscape:connector-curvature="0" fill="none" stroke="#7A7878" stroke-width="1.1575" d="
	M548.493,151.065c-0.121-0.271-1.977,0.39-4.146,1.48"/>
<path id="path11037" inkscape:export-ydpi="300" inkscape:export-xdpi="300" inkscape:export-filename="/home/Nushio/Pictures/Fedora Cheat Cube/Fedora Cheat Cube Users.png" inkscape:connector-curvature="0" fill="#7A7878" d="
	M541.559,150.296l5.481-2.755l1.014,2.272l-5.48,2.755L541.559,150.296z"/>
<path id="path11039" inkscape:export-ydpi="300" inkscape:export-xdpi="300" inkscape:export-filename="/home/Nushio/Pictures/Fedora Cheat Cube/Fedora Cheat Cube Users.png" inkscape:connector-curvature="0" fill="none" stroke="#7A7878" stroke-width="1.1575" d="
	M546.812,147.235c-0.059-0.129-4.016,0.626-5.421,2.751"/>
<path id="path11041" inkscape:export-ydpi="300" inkscape:export-xdpi="300" inkscape:export-filename="/home/Nushio/Pictures/Fedora Cheat Cube/Fedora Cheat Cube Users.png" inkscape:connector-curvature="0" fill="none" stroke="#7A7878" stroke-width="1.1575" d="
	M541.552,145.886c0.741-0.373,1.32-1.144,2.297-1.153l0.786,1.758l-2.297,1.155L541.552,145.886z"/>
<path id="path11043" inkscape:export-ydpi="300" inkscape:export-xdpi="300" inkscape:export-filename="/home/Nushio/Pictures/Fedora Cheat Cube/Fedora Cheat Cube Users.png" inkscape:connector-curvature="0" fill="none" stroke="#7A7878" stroke-width="1.1575" d="
	M544.379,146.122c-0.042-0.096-0.874,0.176-2.294,0.888"/>
<path id="path11045" inkscape:export-ydpi="300" inkscape:export-xdpi="300" inkscape:export-filename="/home/Nushio/Pictures/Fedora Cheat Cube/Fedora Cheat Cube Users.png" inkscape:connector-curvature="0" fill="none" stroke="#7A7878" stroke-width="1.1575" d="
	M542.008,146.84c-0.047-0.106,0.511-0.701,2.011-1.458"/>
<path id="path11047" inkscape:export-ydpi="300" inkscape:export-xdpi="300" inkscape:export-filename="/home/Nushio/Pictures/Fedora Cheat Cube/Fedora Cheat Cube Users.png" inkscape:connector-curvature="0" fill="none" stroke="#7A7878" stroke-width="1.1575" d="
	M544.019,145.382c-0.037-0.083-1.027,0.334-2.215,0.93"/>
</svg>
